<?xml version="1.0" encoding="utf-8"?>
<!-- Generator: Adobe Illustrator 22.1.0, SVG Export Plug-In . SVG Version: 6.00 Build 0)  -->
<svg version="1.1" id="Layer_1" xmlns="http://www.w3.org/2000/svg" xmlns:xlink="http://www.w3.org/1999/xlink" x="0px" y="0px"
	 viewBox="0 0 300 300" style="enable-background:new 0 0 190 210;" xml:space="preserve">
<style type="text/css">
	.st0{fill:none;stroke:#2F52A0;stroke-width:5;stroke-miterlimit:10;}
	.st1{fill:none;stroke:#2F52A0;stroke-width:5;stroke-miterlimit:5;}
</style>
<defs>
<style>
	.st0, .st1{
	stroke-dasharray: 800;
	stroke-dashoffset:0;
	-webkit-animation: dash 2s linear forwards;	
	}

	@-webkit-keyframes dash {
	from {
	stroke-dashoffset:800;
	}to{
	stroke-dashoffset:0;
	 }
	}	

</style>
</defs>

<g>
	<g>
		<path class="st0" d="M34.8,124.3c-4.7-12.9-5.3-24.7-0.4-37.7c2.1-5.7,5-11.1,8.1-16.4
			c3.4-5.6,6.7-8.9,12.6-11.6c5.4-2.4,10.5-5.6,16.1-7.7c6.4-2.4,13.2-2.8,19.9-2.8c5.9,0,12.5-0.5,18.2,1.4
			c5.4,1.8,9.3,6.5,14.8,8.1c2.9,0.8,4.8,1.2,6.3,4c1.1,2,1.5,4.4,2.4,6.4c2.5,5.4,7.7,8.6,10.4,13.8c5.3,10,3.4,22.6,2.7,33.3
			c-0.4,6.1,0,12.9-3.1,18.4c-3,5.2-7.5,9.8-12.1,13.5c-9.5,7.7-22.3,12.5-34.2,15.2c-28.6,6.5-53.3-15.3-63.2-40.4
			c-1.4-3.5-7.2-2-5.8,1.6c9.7,24.3,30.4,45.2,57.9,45.9c7.2,0.2,14.1-1.4,20.8-3.7s13.5-4.7,19.6-8.1c10-5.6,22.4-15.9,24.9-27.7
			c1.5-7,1.2-14.7,1.6-21.8c0.4-6.2,0.5-12.4-0.5-18.6c-1-6.1-3.4-11.6-7.5-16.3c-2.5-2.8-5.1-5.2-6.6-8.7c-1-2.5-1.6-5.2-3.2-7.5
			c-3.3-4.9-9.8-4.8-14.5-8c-5.7-3.9-10.7-6.1-17.7-6.6c-14.4-1-28.3,0-41.2,6.7c-6.4,3.3-14.2,5.5-19,11.1
			c-4.8,5.5-8.4,12.7-11.3,19.4c-3.1,7-5.4,14.3-6,22c-0.7,8.6,1.3,16.4,4.2,24.4C30.3,129.5,36.1,127.9,34.8,124.3L34.8,124.3z"/>
	</g>
</g>
<g>
	<g>
		<path class="st1" d="M30.3,128.2c-9.2,6-16.4,14.4-20.6,24.5c-4,9.4-6.5,20.3,3.1,26.9c8.7,6,20.5,5,29.9,1
			c12.2-5.2,22.6-13.8,34.6-19.4c11.8-5.5,23.3-10.8,33.4-19.3c10-8.5,18.2-18.8,26.2-29s15.9-20.6,22.6-31.7
			c6.3-10.3,13-22.3,11.3-34.9c-1.5-11-10.1-20.8-21.8-20.1c-13.2,0.8-26.2,11.3-35.5,19.9c-2.8,2.6,1.4,6.9,4.2,4.2
			c7.5-7,17-14.4,27-17.3c11.2-3.2,19.7,5,20.3,16s-6.1,21.7-11.7,30.7c-5.9,9.6-12.7,18.6-19.6,27.5
			c-12.9,16.6-26.2,32.6-45.3,42.2c-9.3,4.7-19.1,8.5-28.1,13.9c-8.7,5.3-17.1,12.1-27.3,14c-5.3,1-11.3,0.7-16-2.2
			c-6.2-3.7-5.4-9.1-3.6-15.2c3.2-10.9,10.4-20.3,19.9-26.5C36.6,131.2,33.6,126,30.3,128.2L30.3,128.2z"/>
	</g>
</g>
</svg>
